<svg xmlns="http://www.w3.org/2000/svg" xmlns:xlink="http://www.w3.org/1999/xlink" contentStyleType="text/css" data-diagram-type="CLASS" height="300px" preserveAspectRatio="none" style="width:245px;height:300px;background:#FFFFFF;" version="1.1" viewBox="0 0 245 300" width="245px" zoomAndPan="magnify"><defs/><g><!--class configuration--><g id="elem_configuration"><rect codeLine="1" fill="#F1F1F1" height="96.8906" id="configuration" rx="2.5" ry="2.5" style="stroke:#181818;stroke-width:0.5;" width="126.9443" x="45.63" y="7"/><ellipse cx="60.63" cy="23" fill="#ADD1B2" rx="11" ry="11" style="stroke:#181818;stroke-width:1;"/><path d="M63.5988,28.6406 Q63.0206,28.9375 62.38,29.0781 Q61.7394,29.2344 61.0363,29.2344 Q58.5363,29.2344 57.2081,27.5938 Q55.8956,25.9375 55.8956,22.8125 Q55.8956,19.6875 57.2081,18.0313 Q58.5363,16.375 61.0363,16.375 Q61.7394,16.375 62.38,16.5313 Q63.0363,16.6875 63.5988,16.9844 L63.5988,19.7031 Q62.9738,19.125 62.38,18.8594 Q61.7863,18.5781 61.1613,18.5781 Q59.8175,18.5781 59.13,19.6563 Q58.4425,20.7188 58.4425,22.8125 Q58.4425,24.9063 59.13,25.9844 Q59.8175,27.0469 61.1613,27.0469 Q61.7863,27.0469 62.38,26.7813 Q62.9738,26.5 63.5988,25.9219 L63.5988,28.6406 Z " fill="#000000"/><text fill="#000000" font-family="sans-serif" font-size="14" lengthAdjust="spacing" textLength="94.9443" x="74.63" y="27.8467">Configuration</text><line style="stroke:#181818;stroke-width:0.5;" x1="46.63" x2="171.5743" y1="39" y2="39"/><text fill="#000000" font-family="sans-serif" font-size="14" lengthAdjust="spacing" textLength="12.7764" x="51.63" y="55.9951">id</text><text fill="#000000" font-family="sans-serif" font-size="14" lengthAdjust="spacing" textLength="39.7031" x="51.63" y="72.292">name</text><text fill="#000000" font-family="sans-serif" font-size="14" lengthAdjust="spacing" textLength="34.4258" x="51.63" y="88.5889">rules</text><line style="stroke:#181818;stroke-width:0.5;" x1="46.63" x2="171.5743" y1="95.8906" y2="95.8906"/></g><!--class rule--><g id="elem_rule"><rect codeLine="7" fill="#F1F1F1" height="129.4844" id="rule" rx="2.5" ry="2.5" style="stroke:#181818;stroke-width:0.5;" width="72.2109" x="7" y="163.89"/><ellipse cx="26.0983" cy="179.89" fill="#ADD1B2" rx="11" ry="11" style="stroke:#181818;stroke-width:1;"/><path d="M29.0671,185.5306 Q28.489,185.8275 27.8483,185.9681 Q27.2077,186.1244 26.5046,186.1244 Q24.0046,186.1244 22.6765,184.4838 Q21.364,182.8275 21.364,179.7025 Q21.364,176.5775 22.6765,174.9213 Q24.0046,173.265 26.5046,173.265 Q27.2077,173.265 27.8483,173.4213 Q28.5046,173.5775 29.0671,173.8744 L29.0671,176.5931 Q28.4421,176.015 27.8483,175.7494 Q27.2546,175.4681 26.6296,175.4681 Q25.2858,175.4681 24.5983,176.5463 Q23.9108,177.6088 23.9108,179.7025 Q23.9108,181.7963 24.5983,182.8744 Q25.2858,183.9369 26.6296,183.9369 Q27.2546,183.9369 27.8483,183.6713 Q28.4421,183.39 29.0671,182.8119 L29.0671,185.5306 Z " fill="#000000"/><text fill="#000000" font-family="sans-serif" font-size="14" lengthAdjust="spacing" textLength="31.1035" x="41.0091" y="184.7367">Rule</text><line style="stroke:#181818;stroke-width:0.5;" x1="8" x2="78.2109" y1="195.89" y2="195.89"/><text fill="#000000" font-family="sans-serif" font-size="14" lengthAdjust="spacing" textLength="12.7764" x="13" y="212.8851">id</text><text fill="#000000" font-family="sans-serif" font-size="14" lengthAdjust="spacing" textLength="39.7031" x="13" y="229.182">name</text><text fill="#000000" font-family="sans-serif" font-size="14" lengthAdjust="spacing" textLength="30.208" x="13" y="245.4789">field</text><text fill="#000000" font-family="sans-serif" font-size="14" lengthAdjust="spacing" textLength="60.2109" x="13" y="261.7757">operator</text><text fill="#000000" font-family="sans-serif" font-size="14" lengthAdjust="spacing" textLength="38.2402" x="13" y="278.0726">value</text><line style="stroke:#181818;stroke-width:0.5;" x1="8" x2="78.2109" y1="285.3744" y2="285.3744"/></g><!--class transaction--><g id="elem_transaction"><rect codeLine="15" fill="#F1F1F1" height="129.4844" id="transaction" rx="2.5" ry="2.5" style="stroke:#181818;stroke-width:0.5;" width="124.6426" x="113.78" y="163.89"/><ellipse cx="133.5028" cy="179.89" fill="#ADD1B2" rx="11" ry="11" style="stroke:#181818;stroke-width:1;"/><path d="M136.4716,185.5306 Q135.8934,185.8275 135.2528,185.9681 Q134.6122,186.1244 133.9091,186.1244 Q131.4091,186.1244 130.0809,184.4838 Q128.7684,182.8275 128.7684,179.7025 Q128.7684,176.5775 130.0809,174.9213 Q131.4091,173.265 133.9091,173.265 Q134.6122,173.265 135.2528,173.4213 Q135.9091,173.5775 136.4716,173.8744 L136.4716,176.5931 Q135.8466,176.015 135.2528,175.7494 Q134.6591,175.4681 134.0341,175.4681 Q132.6903,175.4681 132.0028,176.5463 Q131.3153,177.6088 131.3153,179.7025 Q131.3153,181.7963 132.0028,182.8744 Q132.6903,183.9369 134.0341,183.9369 Q134.6591,183.9369 135.2528,183.6713 Q135.8466,183.39 136.4716,182.8119 L136.4716,185.5306 Z " fill="#000000"/><text fill="#000000" font-family="sans-serif" font-size="14" lengthAdjust="spacing" textLength="82.1475" x="148.5523" y="184.7367">Transaction</text><line style="stroke:#181818;stroke-width:0.5;" x1="114.78" x2="237.4226" y1="195.89" y2="195.89"/><text fill="#000000" font-family="sans-serif" font-size="14" lengthAdjust="spacing" textLength="12.7764" x="119.78" y="212.8851">id</text><text fill="#000000" font-family="sans-serif" font-size="14" lengthAdjust="spacing" textLength="32.8877" x="119.78" y="229.182">from</text><text fill="#000000" font-family="sans-serif" font-size="14" lengthAdjust="spacing" textLength="14.0547" x="119.78" y="245.4789">to</text><text fill="#000000" font-family="sans-serif" font-size="14" lengthAdjust="spacing" textLength="13.3506" x="119.78" y="261.7757">...</text><text fill="#000000" font-family="sans-serif" font-size="14" lengthAdjust="spacing" textLength="112.6426" x="119.78" y="278.0726">configuration_id</text><line style="stroke:#181818;stroke-width:0.5;" x1="114.78" x2="237.4226" y1="285.3744" y2="285.3744"/></g><!--link configuration to rule--><g id="link_configuration_rule"><path codeLine="23" d="M90.72,104.13 C83.63,122.53 75.4,143.86 67.81,163.56 " fill="#FFFFFF" fill-opacity="0.00000" id="configuration-rule" style="stroke:#181818;stroke-width:1;"/><text fill="#000000" font-family="sans-serif" font-size="13" lengthAdjust="spacing" textLength="8.271" x="79.5916" y="124.1072">1</text><text fill="#000000" font-family="sans-serif" font-size="13" lengthAdjust="spacing" textLength="6.5" x="64.2113" y="152.6966">*</text></g><!--link configuration to transaction--><g id="link_configuration_transaction"><path codeLine="24" d="M127.77,104.13 C134.97,122.53 143.32,143.86 151.03,163.56 " fill="#FFFFFF" fill-opacity="0.00000" id="configuration-transaction" style="stroke:#181818;stroke-width:1;"/><text fill="#000000" font-family="sans-serif" font-size="13" lengthAdjust="spacing" textLength="8.271" x="121.8517" y="124.1072">1</text><text fill="#000000" font-family="sans-serif" font-size="13" lengthAdjust="spacing" textLength="6.5" x="141.987" y="152.6966">*</text></g><!--SRC=[ZL112W8n3BplAqAEmXPyWpyGxn9gAuLk8sdhHVoxQrspkx28lNHcccIciP5o1Znmyk5QXKhWX40Px5A1HmVJ2HU5YGQdH6fqkR5droxxcNmSzJRmNV3771zSd9_uviO4B2hSALQtONCIIfcinYyptpRrmeEImWgDCOfNEpXFpL_VrNvmZz3tW3ji__nTiSZs0W00]--></g></svg>